<mxfile host="65bd71144e">
    <diagram id="nutw87Jqj0BoTBRKTBKw" name="Page-1">
        <mxGraphModel dx="1499" dy="293" grid="0" gridSize="10" guides="1" tooltips="1" connect="1" arrows="1" fold="1" page="1" pageScale="1" pageWidth="850" pageHeight="1100" math="0" shadow="0">
            <root>
                <mxCell id="0"/>
                <mxCell id="1" parent="0"/>
                <mxCell id="89" value="&lt;b&gt;Assets&lt;/b&gt;&lt;br&gt;&lt;i&gt;list of assets&lt;/i&gt;" style="rounded=0;whiteSpace=wrap;html=1;align=left;verticalAlign=top;spacingLeft=2;fillColor=#647687;fontColor=#ffffff;strokeColor=#314354;" parent="1" vertex="1">
                    <mxGeometry x="630" y="850" width="530" height="335" as="geometry"/>
                </mxCell>
                <mxCell id="13" style="edgeStyle=none;html=1;" parent="1" source="7" target="12" edge="1">
                    <mxGeometry relative="1" as="geometry"/>
                </mxCell>
                <mxCell id="7" value="Quantity" style="rounded=1;whiteSpace=wrap;html=1;" parent="1" vertex="1">
                    <mxGeometry x="-444" y="205" width="120" height="60" as="geometry"/>
                </mxCell>
                <mxCell id="9" style="edgeStyle=none;html=1;" parent="1" source="8" target="7" edge="1">
                    <mxGeometry relative="1" as="geometry"/>
                </mxCell>
                <mxCell id="8" value="Amount" style="rounded=1;whiteSpace=wrap;html=1;" parent="1" vertex="1">
                    <mxGeometry x="-524" y="305" width="120" height="60" as="geometry"/>
                </mxCell>
                <mxCell id="11" style="edgeStyle=none;html=1;" parent="1" source="10" target="7" edge="1">
                    <mxGeometry relative="1" as="geometry"/>
                </mxCell>
                <mxCell id="10" value="Decimal" style="rounded=1;whiteSpace=wrap;html=1;" parent="1" vertex="1">
                    <mxGeometry x="-364" y="305" width="120" height="60" as="geometry"/>
                </mxCell>
                <mxCell id="23" style="edgeStyle=none;html=1;" parent="1" source="12" target="18" edge="1">
                    <mxGeometry relative="1" as="geometry"/>
                </mxCell>
                <mxCell id="12" value="Holding" style="rounded=1;whiteSpace=wrap;html=1;" parent="1" vertex="1">
                    <mxGeometry x="-444" y="105" width="120" height="60" as="geometry"/>
                </mxCell>
                <mxCell id="17" style="edgeStyle=none;html=1;" parent="1" source="14" target="12" edge="1">
                    <mxGeometry relative="1" as="geometry"/>
                </mxCell>
                <mxCell id="14" value="Name" style="rounded=1;whiteSpace=wrap;html=1;" parent="1" vertex="1">
                    <mxGeometry x="-284" y="205" width="120" height="60" as="geometry"/>
                </mxCell>
                <mxCell id="16" style="edgeStyle=none;html=1;" parent="1" source="15" target="12" edge="1">
                    <mxGeometry relative="1" as="geometry"/>
                </mxCell>
                <mxCell id="15" value="TechnicalName" style="rounded=1;whiteSpace=wrap;html=1;" parent="1" vertex="1">
                    <mxGeometry x="-124" y="205" width="120" height="60" as="geometry"/>
                </mxCell>
                <mxCell id="18" value="&lt;b&gt;Holdings&lt;/b&gt;&lt;br&gt;(merely a list of holding)" style="rounded=1;whiteSpace=wrap;html=1;" parent="1" vertex="1">
                    <mxGeometry x="-764" y="5" width="440" height="60" as="geometry"/>
                </mxCell>
                <mxCell id="22" style="edgeStyle=none;html=1;" parent="1" source="19" target="18" edge="1">
                    <mxGeometry relative="1" as="geometry"/>
                </mxCell>
                <mxCell id="19" value="Holding" style="rounded=1;whiteSpace=wrap;html=1;" parent="1" vertex="1">
                    <mxGeometry x="-764" y="105" width="120" height="60" as="geometry"/>
                </mxCell>
                <mxCell id="21" style="edgeStyle=none;html=1;" parent="1" source="20" target="18" edge="1">
                    <mxGeometry relative="1" as="geometry"/>
                </mxCell>
                <mxCell id="20" value="Holding" style="rounded=1;whiteSpace=wrap;html=1;" parent="1" vertex="1">
                    <mxGeometry x="-604" y="105" width="120" height="60" as="geometry"/>
                </mxCell>
                <mxCell id="41" value="&lt;b&gt;Holdings&lt;/b&gt;&lt;br&gt;&lt;i&gt;list of holdings&lt;/i&gt;" style="rounded=0;whiteSpace=wrap;html=1;align=left;verticalAlign=top;spacingLeft=2;fillColor=#647687;fontColor=#ffffff;strokeColor=#314354;" parent="1" vertex="1">
                    <mxGeometry x="880" y="80" width="760" height="350" as="geometry"/>
                </mxCell>
                <mxCell id="42" value="Holding&lt;br&gt;..." style="rounded=0;whiteSpace=wrap;html=1;align=left;verticalAlign=top;spacingLeft=2;fillColor=#647687;fontColor=#ffffff;strokeColor=#314354;" parent="1" vertex="1">
                    <mxGeometry x="1330" y="140" width="120" height="270" as="geometry"/>
                </mxCell>
                <mxCell id="43" value="Holding&lt;br&gt;..." style="rounded=0;whiteSpace=wrap;html=1;align=left;verticalAlign=top;spacingLeft=2;fillColor=#647687;fontColor=#ffffff;strokeColor=#314354;" parent="1" vertex="1">
                    <mxGeometry x="1495" y="140" width="120" height="270" as="geometry"/>
                </mxCell>
                <mxCell id="44" value="&lt;b&gt;Holding&lt;/b&gt;&lt;br&gt;" style="rounded=0;whiteSpace=wrap;html=1;align=left;verticalAlign=top;spacingLeft=2;fillColor=#647687;fontColor=#ffffff;strokeColor=#314354;" parent="1" vertex="1">
                    <mxGeometry x="895" y="140" width="380" height="270" as="geometry"/>
                </mxCell>
                <mxCell id="45" value="name" style="rounded=0;whiteSpace=wrap;html=1;align=left;verticalAlign=top;spacingLeft=2;fillColor=#e3c800;fontColor=#000000;strokeColor=#B09500;" parent="1" vertex="1">
                    <mxGeometry x="910" y="190" width="90" height="30" as="geometry"/>
                </mxCell>
                <mxCell id="46" value="technicalName" style="rounded=0;whiteSpace=wrap;html=1;align=left;verticalAlign=top;spacingLeft=2;fillColor=#e3c800;fontColor=#000000;strokeColor=#B09500;" parent="1" vertex="1">
                    <mxGeometry x="1020" y="190" width="90" height="30" as="geometry"/>
                </mxCell>
                <mxCell id="47" value="&lt;b&gt;Quantity&lt;/b&gt;&lt;br&gt;&lt;div&gt;&lt;span&gt;&lt;i&gt;amount cannot have more decimal places than decimal&lt;/i&gt;&lt;/span&gt;&lt;/div&gt;" style="rounded=0;whiteSpace=wrap;html=1;align=left;verticalAlign=top;spacingLeft=2;glass=0;sketch=0;shadow=0;fillColor=#6d8764;strokeColor=#3A5431;fontColor=#ffffff;" parent="1" vertex="1">
                    <mxGeometry x="910" y="240" width="340" height="145" as="geometry"/>
                </mxCell>
                <mxCell id="48" value="&lt;b&gt;Amount&lt;/b&gt;&lt;br&gt;&lt;i&gt;0 - 21 Billion inclusive&lt;/i&gt;" style="rounded=0;whiteSpace=wrap;html=1;align=left;verticalAlign=top;spacingLeft=2;glass=0;sketch=0;shadow=0;fillColor=#6d8764;strokeColor=#3A5431;fontColor=#ffffff;" parent="1" vertex="1">
                    <mxGeometry x="935" y="305" width="145" height="60" as="geometry"/>
                </mxCell>
                <mxCell id="49" value="&lt;b&gt;Decimal&lt;/b&gt;&lt;br&gt;&lt;i&gt;0 - 8 inclusive&lt;/i&gt;" style="rounded=0;whiteSpace=wrap;html=1;align=left;verticalAlign=top;spacingLeft=2;glass=0;sketch=0;shadow=0;fillColor=#6d8764;strokeColor=#3A5431;fontColor=#ffffff;" parent="1" vertex="1">
                    <mxGeometry x="1100" y="305" width="120" height="60" as="geometry"/>
                </mxCell>
                <mxCell id="50" value="Entity" style="rounded=0;whiteSpace=wrap;html=1;align=center;verticalAlign=top;spacingLeft=2;fillColor=#647687;fontColor=#ffffff;strokeColor=#314354;" parent="1" vertex="1">
                    <mxGeometry x="880" y="20" width="80" height="30" as="geometry"/>
                </mxCell>
                <mxCell id="51" value="raw value" style="rounded=0;whiteSpace=wrap;html=1;align=center;verticalAlign=top;spacingLeft=2;fillColor=#e3c800;fontColor=#000000;strokeColor=#B09500;" parent="1" vertex="1">
                    <mxGeometry x="1000" y="20" width="80" height="30" as="geometry"/>
                </mxCell>
                <mxCell id="55" value="Validated Value Object" style="rounded=0;whiteSpace=wrap;html=1;align=center;verticalAlign=top;spacingLeft=2;glass=0;sketch=0;shadow=0;fillColor=#6d8764;strokeColor=#3A5431;fontColor=#ffffff;" parent="1" vertex="1">
                    <mxGeometry x="1120" y="20" width="160" height="30" as="geometry"/>
                </mxCell>
                <mxCell id="70" style="edgeStyle=orthogonalEdgeStyle;html=1;" parent="1" source="56" target="72" edge="1">
                    <mxGeometry relative="1" as="geometry">
                        <mxPoint x="1077.6851806640625" y="655" as="targetPoint"/>
                    </mxGeometry>
                </mxCell>
                <mxCell id="56" value="Holding" style="swimlane;fontStyle=0;childLayout=stackLayout;horizontal=1;startSize=30;horizontalStack=0;resizeParent=1;resizeParentMax=0;resizeLast=0;collapsible=1;marginBottom=0;rounded=0;shadow=0;glass=0;labelBorderColor=none;sketch=0;strokeColor=default;swimlaneLine=1;" parent="1" vertex="1">
                    <mxGeometry x="1180" y="610" width="140" height="90" as="geometry"/>
                </mxCell>
                <mxCell id="57" value="asset" style="text;strokeColor=none;fillColor=none;align=left;verticalAlign=middle;spacingLeft=4;spacingRight=4;overflow=hidden;points=[[0,0.5],[1,0.5]];portConstraint=eastwest;rotatable=0;rounded=1;shadow=0;glass=0;labelBorderColor=none;sketch=1;" parent="56" vertex="1">
                    <mxGeometry y="30" width="140" height="30" as="geometry"/>
                </mxCell>
                <mxCell id="58" value="amount" style="text;strokeColor=none;fillColor=none;align=left;verticalAlign=middle;spacingLeft=4;spacingRight=4;overflow=hidden;points=[[0,0.5],[1,0.5]];portConstraint=eastwest;rotatable=0;rounded=1;shadow=0;glass=0;labelBorderColor=none;sketch=1;" parent="56" vertex="1">
                    <mxGeometry y="60" width="140" height="30" as="geometry"/>
                </mxCell>
                <mxCell id="60" value="Asset" style="swimlane;fontStyle=0;childLayout=stackLayout;horizontal=1;startSize=30;horizontalStack=0;resizeParent=1;resizeParentMax=0;resizeLast=0;collapsible=1;marginBottom=0;rounded=0;shadow=0;glass=0;labelBorderColor=none;sketch=0;strokeColor=default;swimlaneLine=1;" parent="1" vertex="1">
                    <mxGeometry x="1475" y="690" width="140" height="120" as="geometry"/>
                </mxCell>
                <mxCell id="61" value="technicalName" style="text;strokeColor=none;fillColor=none;align=left;verticalAlign=middle;spacingLeft=4;spacingRight=4;overflow=hidden;points=[[0,0.5],[1,0.5]];portConstraint=eastwest;rotatable=0;rounded=1;shadow=0;glass=0;labelBorderColor=none;sketch=1;" parent="60" vertex="1">
                    <mxGeometry y="30" width="140" height="30" as="geometry"/>
                </mxCell>
                <mxCell id="62" value="amountIssued" style="text;strokeColor=none;fillColor=none;align=left;verticalAlign=middle;spacingLeft=4;spacingRight=4;overflow=hidden;points=[[0,0.5],[1,0.5]];portConstraint=eastwest;rotatable=0;rounded=1;shadow=0;glass=0;labelBorderColor=none;sketch=1;" parent="60" vertex="1">
                    <mxGeometry y="60" width="140" height="30" as="geometry"/>
                </mxCell>
                <mxCell id="63" value="decimalPlaces" style="text;strokeColor=none;fillColor=none;align=left;verticalAlign=middle;spacingLeft=4;spacingRight=4;overflow=hidden;points=[[0,0.5],[1,0.5]];portConstraint=eastwest;rotatable=0;rounded=1;shadow=0;glass=0;labelBorderColor=none;sketch=1;" parent="60" vertex="1">
                    <mxGeometry y="90" width="140" height="30" as="geometry"/>
                </mxCell>
                <mxCell id="64" value="amount" style="swimlane;fontStyle=0;childLayout=stackLayout;horizontal=1;startSize=30;horizontalStack=0;resizeParent=1;resizeParentMax=0;resizeLast=0;collapsible=1;marginBottom=0;rounded=0;shadow=0;glass=0;labelBorderColor=none;sketch=0;strokeColor=default;swimlaneLine=1;" parent="1" vertex="1">
                    <mxGeometry x="1310" y="750" width="140" height="60" as="geometry"/>
                </mxCell>
                <mxCell id="65" value="value" style="text;strokeColor=none;fillColor=none;align=left;verticalAlign=middle;spacingLeft=4;spacingRight=4;overflow=hidden;points=[[0,0.5],[1,0.5]];portConstraint=eastwest;rotatable=0;rounded=1;shadow=0;glass=0;labelBorderColor=none;sketch=1;" parent="64" vertex="1">
                    <mxGeometry y="30" width="140" height="30" as="geometry"/>
                </mxCell>
                <mxCell id="68" style="edgeStyle=orthogonalEdgeStyle;html=1;entryX=0.5;entryY=0;entryDx=0;entryDy=0;exitX=1;exitY=0.5;exitDx=0;exitDy=0;" parent="1" source="57" target="60" edge="1">
                    <mxGeometry relative="1" as="geometry">
                        <Array as="points">
                            <mxPoint x="1545" y="655"/>
                        </Array>
                    </mxGeometry>
                </mxCell>
                <mxCell id="69" style="edgeStyle=orthogonalEdgeStyle;html=1;entryX=0.5;entryY=0;entryDx=0;entryDy=0;" parent="1" source="58" target="64" edge="1">
                    <mxGeometry relative="1" as="geometry">
                        <Array as="points">
                            <mxPoint x="1380" y="685"/>
                        </Array>
                    </mxGeometry>
                </mxCell>
                <mxCell id="71" style="edgeStyle=orthogonalEdgeStyle;html=1;exitX=0;exitY=0.5;exitDx=0;exitDy=0;" parent="1" source="58" target="72" edge="1">
                    <mxGeometry relative="1" as="geometry">
                        <mxPoint x="1080" y="685" as="targetPoint"/>
                    </mxGeometry>
                </mxCell>
                <mxCell id="72" value="will validate amount is within asset boundaries" style="rounded=0;whiteSpace=wrap;html=1;shadow=0;glass=0;labelBorderColor=none;sketch=0;strokeColor=default;" parent="1" vertex="1">
                    <mxGeometry x="940" y="640" width="180" height="60" as="geometry"/>
                </mxCell>
                <mxCell id="73" value="&lt;b&gt;Holdings&lt;/b&gt;&lt;br&gt;&lt;i&gt;list of holdings&lt;/i&gt;" style="rounded=0;whiteSpace=wrap;html=1;align=left;verticalAlign=top;spacingLeft=2;fillColor=#647687;fontColor=#ffffff;strokeColor=#314354;" parent="1" vertex="1">
                    <mxGeometry x="1200" y="850" width="480" height="210" as="geometry"/>
                </mxCell>
                <mxCell id="74" value="Holding&lt;br&gt;..." style="rounded=0;whiteSpace=wrap;html=1;align=left;verticalAlign=top;spacingLeft=2;fillColor=#647687;fontColor=#ffffff;strokeColor=#314354;" parent="1" vertex="1">
                    <mxGeometry x="1525" y="910" width="60" height="130" as="geometry"/>
                </mxCell>
                <mxCell id="75" value="Holding&lt;br&gt;..." style="rounded=0;whiteSpace=wrap;html=1;align=left;verticalAlign=top;spacingLeft=2;fillColor=#647687;fontColor=#ffffff;strokeColor=#314354;" parent="1" vertex="1">
                    <mxGeometry x="1600" y="910" width="60" height="130" as="geometry"/>
                </mxCell>
                <mxCell id="76" value="&lt;b&gt;Holding&lt;br&gt;&lt;/b&gt;&lt;i&gt;amount cannot be larger than asset.amountIssued, nor have more decimals than asset.decimalPlaces&lt;/i&gt;" style="rounded=0;whiteSpace=wrap;html=1;align=left;verticalAlign=top;spacingLeft=2;fillColor=#647687;fontColor=#ffffff;strokeColor=#314354;" parent="1" vertex="1">
                    <mxGeometry x="1220" y="910" width="285" height="130" as="geometry"/>
                </mxCell>
                <mxCell id="80" value="&lt;b&gt;Amount&lt;/b&gt;&lt;br&gt;&lt;i&gt;0 - 21 Billion inclusive&lt;/i&gt;" style="rounded=0;whiteSpace=wrap;html=1;align=left;verticalAlign=top;spacingLeft=2;glass=0;sketch=0;shadow=0;fillColor=#6d8764;strokeColor=#3A5431;fontColor=#ffffff;" parent="1" vertex="1">
                    <mxGeometry x="1345" y="970" width="145" height="60" as="geometry"/>
                </mxCell>
                <mxCell id="87" value="Asset&lt;br&gt;&lt;i&gt;amount cannot have more decimal places than decimal&lt;/i&gt;" style="rounded=0;whiteSpace=wrap;html=1;align=left;verticalAlign=top;spacingLeft=2;fillColor=#647687;fontColor=#ffffff;strokeColor=#314354;" parent="1" vertex="1">
                    <mxGeometry x="802.5" y="910" width="327.5" height="261" as="geometry"/>
                </mxCell>
                <mxCell id="83" value="&lt;b&gt;Amount&lt;/b&gt;&lt;br&gt;&lt;i&gt;0 - 21 Billion inclusive&lt;/i&gt;" style="rounded=0;whiteSpace=wrap;html=1;align=left;verticalAlign=top;spacingLeft=2;glass=0;sketch=0;shadow=0;fillColor=#6d8764;strokeColor=#3A5431;fontColor=#ffffff;" parent="1" vertex="1">
                    <mxGeometry x="825" y="1040" width="145" height="60" as="geometry"/>
                </mxCell>
                <mxCell id="84" value="&lt;b&gt;Decimal&lt;/b&gt;&lt;br&gt;&lt;i&gt;0 - 8 inclusive&lt;/i&gt;" style="rounded=0;whiteSpace=wrap;html=1;align=left;verticalAlign=top;spacingLeft=2;glass=0;sketch=0;shadow=0;fillColor=#6d8764;strokeColor=#3A5431;fontColor=#ffffff;" parent="1" vertex="1">
                    <mxGeometry x="990" y="1040" width="120" height="60" as="geometry"/>
                </mxCell>
                <mxCell id="85" value="&lt;b&gt;TechnicalName (can be id)&lt;/b&gt;&lt;br&gt;&lt;i&gt;2 - 32 characters&lt;/i&gt;" style="rounded=0;whiteSpace=wrap;html=1;align=left;verticalAlign=top;spacingLeft=2;glass=0;sketch=0;shadow=0;fillColor=#6d8764;strokeColor=#3A5431;fontColor=#ffffff;" parent="1" vertex="1">
                    <mxGeometry x="825" y="960" width="285" height="60" as="geometry"/>
                </mxCell>
                <mxCell id="93" style="edgeStyle=orthogonalEdgeStyle;html=1;" parent="1" target="87" edge="1">
                    <mxGeometry relative="1" as="geometry">
                        <mxPoint x="1235" y="985" as="sourcePoint"/>
                    </mxGeometry>
                </mxCell>
                <mxCell id="90" value="Asset&lt;br&gt;&lt;i&gt;...&lt;/i&gt;" style="rounded=0;whiteSpace=wrap;html=1;align=left;verticalAlign=top;spacingLeft=2;fillColor=#647687;fontColor=#ffffff;strokeColor=#314354;" parent="1" vertex="1">
                    <mxGeometry x="650" y="910" width="47.5" height="210" as="geometry"/>
                </mxCell>
                <mxCell id="91" value="Asset&lt;br&gt;&lt;i&gt;...&lt;/i&gt;" style="rounded=0;whiteSpace=wrap;html=1;align=left;verticalAlign=top;spacingLeft=2;fillColor=#647687;fontColor=#ffffff;strokeColor=#314354;" parent="1" vertex="1">
                    <mxGeometry x="720" y="910" width="57.5" height="210" as="geometry"/>
                </mxCell>
                <mxCell id="94" value="&lt;i&gt;How do we validate the Amount of a particular asset?&lt;br&gt;&lt;/i&gt;&lt;br&gt;&lt;div style=&quot;text-align: left&quot;&gt;&lt;span&gt;1. the amount is not more than issued&lt;/span&gt;&lt;/div&gt;&lt;div style=&quot;text-align: left&quot;&gt;&lt;span&gt;2. and doesn't have more decimals places than the asset was issued with.&lt;/span&gt;&lt;/div&gt;&lt;div style=&quot;text-align: left&quot;&gt;&lt;span&gt;&lt;br&gt;&lt;/span&gt;&lt;/div&gt;&lt;div&gt;&lt;span&gt;&lt;i&gt;we need asset data to compare against&lt;/i&gt;&lt;/span&gt;&lt;/div&gt;" style="text;html=1;strokeColor=none;fillColor=none;align=center;verticalAlign=middle;whiteSpace=wrap;rounded=0;shadow=0;glass=0;labelBorderColor=none;sketch=0;" parent="1" vertex="1">
                    <mxGeometry x="880" y="441" width="760" height="126" as="geometry"/>
                </mxCell>
                <mxCell id="102" value="&lt;b&gt;Holdings&lt;/b&gt;&lt;br&gt;&lt;i&gt;list of holdings&lt;/i&gt;" style="rounded=0;whiteSpace=wrap;html=1;align=left;verticalAlign=top;spacingLeft=2;fillColor=#647687;fontColor=#ffffff;strokeColor=#314354;" parent="1" vertex="1">
                    <mxGeometry x="1040" y="1193" width="480" height="400" as="geometry"/>
                </mxCell>
                <mxCell id="104" value="Holding&lt;br&gt;..." style="rounded=0;whiteSpace=wrap;html=1;align=left;verticalAlign=top;spacingLeft=2;fillColor=#647687;fontColor=#ffffff;strokeColor=#314354;" parent="1" vertex="1">
                    <mxGeometry x="1440" y="1253" width="60" height="130" as="geometry"/>
                </mxCell>
                <mxCell id="105" value="&lt;b&gt;Holding&lt;br&gt;&lt;/b&gt;&lt;i&gt;amount owned cannot be larger than amount issued, &lt;br&gt;nor have more decimals than decimal places.&lt;br&gt;&lt;br&gt;&lt;/i&gt;" style="rounded=0;whiteSpace=wrap;html=1;align=left;verticalAlign=top;spacingLeft=2;fillColor=#647687;fontColor=#ffffff;strokeColor=#314354;" parent="1" vertex="1">
                    <mxGeometry x="1060" y="1253" width="366" height="312" as="geometry"/>
                </mxCell>
                <mxCell id="110" value="&lt;b&gt;TechnicalName &lt;br&gt;(can be id)&lt;/b&gt;&lt;br&gt;&lt;i&gt;2 - 32 characters&lt;/i&gt;" style="rounded=0;whiteSpace=wrap;html=1;align=left;verticalAlign=top;spacingLeft=2;glass=0;sketch=0;shadow=0;fillColor=#6d8764;strokeColor=#3A5431;fontColor=#ffffff;" parent="1" vertex="1">
                    <mxGeometry x="1080" y="1323" width="145" height="60" as="geometry"/>
                </mxCell>
                <mxCell id="115" value="&lt;b&gt;Amount (owned)&lt;/b&gt;&lt;br&gt;&lt;i&gt;0 - 21 Billion inclusive&lt;/i&gt;" style="rounded=0;whiteSpace=wrap;html=1;align=left;verticalAlign=top;spacingLeft=2;glass=0;sketch=0;shadow=0;fillColor=#6d8764;strokeColor=#3A5431;fontColor=#ffffff;" parent="1" vertex="1">
                    <mxGeometry x="1245" y="1323" width="145" height="60" as="geometry"/>
                </mxCell>
                <mxCell id="117" value="&lt;b&gt;type&lt;/b&gt;" style="rounded=0;whiteSpace=wrap;html=1;align=left;verticalAlign=top;spacingLeft=2;glass=0;sketch=0;shadow=0;fillColor=#6d8764;strokeColor=#3A5431;fontColor=#ffffff;" parent="1" vertex="1">
                    <mxGeometry x="1247" y="1485" width="118" height="60" as="geometry"/>
                </mxCell>
                <mxCell id="127" value="&lt;b&gt;Transactions&lt;/b&gt;&lt;br&gt;&lt;i&gt;list of transactions&lt;/i&gt;" style="rounded=0;whiteSpace=wrap;html=1;align=left;verticalAlign=top;spacingLeft=2;fillColor=#647687;fontColor=#ffffff;strokeColor=#314354;" parent="1" vertex="1">
                    <mxGeometry x="103" y="850" width="420" height="212" as="geometry"/>
                </mxCell>
                <mxCell id="128" value="Transaction&lt;br&gt;..." style="rounded=0;whiteSpace=wrap;html=1;align=left;verticalAlign=top;spacingLeft=2;fillColor=#647687;fontColor=#ffffff;strokeColor=#314354;" parent="1" vertex="1">
                    <mxGeometry x="123" y="905" width="77" height="122" as="geometry"/>
                </mxCell>
                <mxCell id="129" value="&lt;b&gt;Transaction&lt;br&gt;&lt;/b&gt;&lt;i&gt;&lt;br&gt;&lt;/i&gt;" style="rounded=0;whiteSpace=wrap;html=1;align=left;verticalAlign=top;spacingLeft=2;fillColor=#647687;fontColor=#ffffff;strokeColor=#314354;" parent="1" vertex="1">
                    <mxGeometry x="217" y="905" width="291" height="122" as="geometry"/>
                </mxCell>
                <mxCell id="132" value="&lt;b&gt;Transaction Details&lt;br&gt;&lt;/b&gt;..." style="rounded=0;whiteSpace=wrap;html=1;align=left;verticalAlign=top;spacingLeft=2;glass=0;sketch=0;shadow=0;fillColor=#6d8764;strokeColor=#3A5431;fontColor=#ffffff;" parent="1" vertex="1">
                    <mxGeometry x="248" y="940" width="140" height="60" as="geometry"/>
                </mxCell>
                <mxCell id="137" style="edgeStyle=orthogonalEdgeStyle;html=1;" parent="1" source="136" target="90" edge="1">
                    <mxGeometry relative="1" as="geometry"/>
                </mxCell>
                <mxCell id="136" value="assetId" style="rounded=0;whiteSpace=wrap;html=1;align=left;verticalAlign=top;spacingLeft=2;fillColor=#e3c800;fontColor=#000000;strokeColor=#B09500;" parent="1" vertex="1">
                    <mxGeometry x="401" y="940" width="90" height="30" as="geometry"/>
                </mxCell>
                <mxCell id="154" value="Asset" style="rounded=0;whiteSpace=wrap;html=1;align=center;verticalAlign=top;spacingLeft=2;fillColor=#647687;fontColor=#ffffff;strokeColor=#314354;" parent="1" vertex="1">
                    <mxGeometry x="1235" y="975" width="80" height="30" as="geometry"/>
                </mxCell>
                <mxCell id="155" value="name" style="rounded=0;whiteSpace=wrap;html=1;align=left;verticalAlign=top;spacingLeft=2;fillColor=#e3c800;fontColor=#000000;strokeColor=#B09500;" parent="1" vertex="1">
                    <mxGeometry x="825" y="1118" width="90" height="30" as="geometry"/>
                </mxCell>
                <mxCell id="156" value="type" style="rounded=0;whiteSpace=wrap;html=1;align=left;verticalAlign=top;spacingLeft=2;fillColor=#e3c800;fontColor=#000000;strokeColor=#B09500;" parent="1" vertex="1">
                    <mxGeometry x="940" y="1118" width="90" height="30" as="geometry"/>
                </mxCell>
            </root>
        </mxGraphModel>
    </diagram>
</mxfile>